<svg xmlns="http://www.w3.org/2000/svg" version="1.1" xmlns:xlink="http://www.w3.org/1999/xlink" xmlns:svgjs="http://svgjs.dev/svgjs" width="2000" height="2000" viewBox="0 0 2000 2000"><g transform="matrix(1,0,0,1,-0.28443113772425477,-0.28443113772459583)"><svg viewBox="0 0 334 334" data-background-color="#21232b" preserveAspectRatio="xMidYMid meet" height="2000" width="2000" xmlns="http://www.w3.org/2000/svg" xmlns:xlink="http://www.w3.org/1999/xlink"><g id="tight-bounds" transform="matrix(1,0,0,1,0.04749999999998522,0.04750000000001364)"><svg viewBox="0 0 333.90454557049503 333.90454557049503" height="333.90454557049503" width="333.90454557049503"><g><svg></svg></g><g><svg viewBox="0 0 333.90454557049503 333.90454557049503" height="333.90454557049503" width="333.90454557049503"><g><path d="M0 166.952c0-92.205 74.747-166.952 166.952-166.952 92.205 0 166.952 74.747 166.953 166.952 0 92.205-74.747 166.952-166.953 166.953-92.205 0-166.952-74.747-166.952-166.953zM166.952 326.83c88.298 0 159.877-71.58 159.878-159.878 0-88.298-71.58-159.877-159.878-159.877-88.298 0-159.877 71.58-159.877 159.877 0 88.298 71.58 159.877 159.877 159.878z" data-fill-palette-color="tertiary" fill="#ffffff" stroke="transparent"></path><ellipse rx="160.27418187383762" ry="160.27418187383762" cx="166.95227278524752" cy="166.95227278524752" fill="#ffffff" stroke="transparent" stroke-width="0" fill-opacity="1" data-fill-palette-color="tertiary"></ellipse></g><g transform="matrix(1,0,0,1,100.27879811021104,71.17305217166896)"><svg viewBox="0 0 133.34694935007295 191.55844122715712" height="191.55844122715712" width="133.34694935007295"><g><svg viewBox="0 0 133.34694935007295 191.55844122715712" height="191.55844122715712" width="133.34694935007295"><g><svg viewBox="0 0 213.1584412271571 306.2109702164136" height="191.55844122715712" width="133.34694935007295"><g transform="matrix(1,0,0,1,0,180.8027539611028)"><svg viewBox="0 0 213.1584412271571 125.40821625531079" height="125.40821625531079" width="213.1584412271571"><g id="textblocktransform"><svg viewBox="0 0 213.1584412271571 125.40821625531079" height="125.40821625531079" width="213.1584412271571" id="textblock"><g><svg viewBox="0 0 213.1584412271571 125.40821625531079" height="125.40821625531079" width="213.1584412271571"><g transform="matrix(1,0,0,1,0,0)"><svg width="213.1584412271571" viewBox="2.3 -35.35 60 35.300000000000004" height="125.40821625531079" data-palette-color="#21232b"><path d="M33.35-17.75Q35.3-17.75 35.3-16.05L35.3-16.05Q35.3-15.2 34.8-14.73 34.3-14.25 33.45-14.3L33.45-14.3 32.15-14.35Q31.9-7.4 28.7-3.73 25.5-0.05 19.25-0.05L19.25-0.05Q14.2-0.05 10.33-2.4 6.45-4.75 4.38-8.7 2.3-12.65 2.3-17.35L2.3-17.35Q2.3-22.05 4.4-25.98 6.5-29.9 10.25-32.2 14-34.5 18.7-34.5L18.7-34.5Q22.25-34.5 24.83-33.27 27.4-32.05 29-30.2L29-30.2 29-31.2Q29-32.05 29.55-32.52 30.1-33 31-33L31-33Q31.85-33 32.38-32.6 32.9-32.2 32.9-31.65L32.9-31.65Q32.9-28.1 32.35-26.95L32.35-26.95Q31.85-25.85 30.4-25.85L30.4-25.85Q29.85-25.85 29.4-26.08 28.95-26.3 28.25-26.95L28.25-26.95Q26.75-28.3 25.65-29.1 24.55-29.9 23.03-30.43 21.5-30.95 19.4-30.95L19.4-30.95Q15.45-30.95 12.45-29.1 9.45-27.25 7.8-24.1 6.15-20.95 6.15-17.2L6.15-17.2Q6.15-13.45 7.8-10.33 9.45-7.2 12.43-5.4 15.4-3.6 19.2-3.6L19.2-3.6Q23.75-3.6 25.98-6.3 28.2-9 28.4-14.3L28.4-14.3 21.35-14.45Q19.5-14.5 19.5-16.2L19.5-16.2Q19.5-17.1 20.08-17.57 20.65-18.05 21.45-18L21.45-18 33.35-17.75ZM51.65-0.05Q48-0.05 45.4-1.53 42.8-3 41.47-5.48 40.15-7.95 40.15-10.85L40.15-10.85Q40.15-11.75 40.57-12.25 41-12.75 42.05-12.75L42.05-12.75Q44-12.75 44-11.1L44-11.1Q44-8.75 45.05-7.05 46.1-5.35 47.85-4.45 49.6-3.55 51.65-3.55L51.65-3.55Q54.65-3.55 56.57-4.95 58.5-6.35 58.5-9L58.5-9Q58.5-10.95 57.45-12.23 56.4-13.5 54.7-14.28 53-15.05 50.35-15.85L50.35-15.85Q47.5-16.65 45.5-17.53 43.5-18.4 41.77-20.35 40.05-22.3 40.05-25.5L40.05-25.5Q40.05-28.35 41.55-30.6 43.05-32.85 45.55-34.1 48.05-35.35 51.05-35.35L51.05-35.35Q54.15-35.35 56.67-34 59.2-32.65 60.62-30.45 62.05-28.25 62.05-25.8L62.05-25.8Q62.05-24.7 61.62-24.25 61.2-23.8 60.2-23.8L60.2-23.8Q59.05-23.8 58.65-24.25 58.25-24.7 58.25-25.5L58.25-25.5Q58.25-28.15 56.25-30 54.25-31.85 51.05-31.85L51.05-31.85Q47.85-31.85 45.87-30.03 43.9-28.2 43.9-25.45L43.9-25.45Q43.9-23.6 44.97-22.43 46.05-21.25 47.67-20.6 49.3-19.95 52.3-19.05L52.3-19.05Q54.85-18.25 56.92-17.28 59-16.3 60.65-14.25 62.3-12.2 62.3-9.05L62.3-9.05Q62.3-6.35 60.92-4.3 59.55-2.25 57.12-1.15 54.7-0.05 51.65-0.05L51.65-0.05Z" opacity="1" transform="matrix(1,0,0,1,0,0)" fill="#000000" class="wordmark-text-0" data-fill-palette-color="quaternary" id="text-0"></path></svg></g></svg></g></svg></g></svg></g><g transform="matrix(1,0,0,1,40.713262274387006,0)"><svg viewBox="0 0 131.7319166783831 151.19688390041406" height="151.19688390041406" width="131.7319166783831"><g><svg xmlns="http://www.w3.org/2000/svg" xmlns:xlink="http://www.w3.org/1999/xlink" version="1.1" x="0" y="0" viewBox="13.100000000000001 8 69.70086328771083 80" style="enable-background:new 0 0 96 96;" xml:space="preserve" height="151.19688390041406" width="131.7319166783831" class="icon-icon-0" data-fill-palette-color="quaternary" id="icon-0"><g fill="#21232b" data-fill-palette-color="quaternary"><g fill="#21232b" data-fill-palette-color="quaternary"><path d="M48 43.3L48 43.3c9.7 0 17.7-7.9 17.7-17.7C65.7 15.9 57.7 8 48 8c-9.7 0-17.7 7.9-17.7 17.7C30.3 35.4 38.3 43.3 48 43.3zM48 12c7.5 0 13.7 6.1 13.7 13.7 0 7.5-6.1 13.7-13.7 13.7h0c-7.5 0-13.7-6.1-13.7-13.7C34.3 18.1 40.5 12 48 12z" fill="#000000" data-fill-palette-color="quaternary"></path><path d="M63.4 44.3c-0.6 0-1.1 0.2-1.5 0.6-3.7 3.6-8.7 5.6-13.9 5.6s-10.1-2-13.9-5.6c-0.4-0.4-1-0.6-1.5-0.6-10.9 0.8-19.5 10-19.5 21V75c0 7.2 5.8 13 13 13h43.7c7.2 0 13-5.8 13-13v-9.7C82.9 54.3 74.3 45.1 63.4 44.3zM78.9 75c0 5-4 9-9 9H26.1c-5 0-9-4-9-9v-9.7c0-8.6 6.5-15.8 14.9-16.9 4.4 4 10 6.1 16 6.1s11.6-2.2 16-6.1c8.4 1 14.9 8.3 14.9 16.9V75z" fill="#000000" data-fill-palette-color="quaternary"></path><path d="M59.1 62.4c-0.8-0.8-2-0.8-2.8 0s-0.8 2 0 2.8L60 69l-3.7 3.7c-0.8 0.8-0.8 2 0 2.8 0.4 0.4 0.9 0.6 1.4 0.6s1-0.2 1.4-0.6l5.1-5.1c0.8-0.8 0.8-2 0-2.8L59.1 62.4z" fill="#000000" data-fill-palette-color="quaternary"></path><path d="M51.8 57.1c-1.1-0.3-2.2 0.3-2.5 1.4l-5.6 19.9c-0.3 1.1 0.3 2.2 1.4 2.5 0.2 0.1 0.4 0.1 0.5 0.1 0.9 0 1.7-0.6 1.9-1.5l5.6-19.9C53.4 58.5 52.8 57.4 51.8 57.1z" fill="#000000" data-fill-palette-color="quaternary"></path><path d="M39.7 62.4c-0.8-0.8-2-0.8-2.8 0l-5.1 5.1c-0.8 0.8-0.8 2 0 2.8l5.1 5.1c0.4 0.4 0.9 0.6 1.4 0.6s1-0.2 1.4-0.6c0.8-0.8 0.8-2 0-2.8L36 69l3.7-3.7C40.5 64.5 40.5 63.2 39.7 62.4z" fill="#000000" data-fill-palette-color="quaternary"></path></g></g></svg></g></svg></g><g></g></svg></g></svg></g></svg></g></svg></g><defs></defs></svg><rect width="333.90454557049503" height="333.90454557049503" fill="none" stroke="none" visibility="hidden"></rect></g></svg></g></svg>